<svg width="18" height="18" viewBox="0 0 18 18" fill="none" xmlns="http://www.w3.org/2000/svg">
<path d="M6 14.25C6.39782 14.25 6.77936 14.092 7.06066 13.8107C7.34196 13.5294 7.5 13.1478 7.5 12.75C7.5 12.3522 7.34196 11.9706 7.06066 11.6893C6.77936 11.408 6.39782 11.25 6 11.25C5.60218 11.25 5.22064 11.408 4.93934 11.6893C4.65804 11.9706 4.5 12.3522 4.5 12.75C4.5 13.1478 4.65804 13.5294 4.93934 13.8107C5.22064 14.092 5.60218 14.25 6 14.25V14.25ZM13.5 14.25C13.8978 14.25 14.2794 14.092 14.5607 13.8107C14.842 13.5294 15 13.1478 15 12.75C15 12.3522 14.842 11.9706 14.5607 11.6893C14.2794 11.408 13.8978 11.25 13.5 11.25C13.1022 11.25 12.7206 11.408 12.4393 11.6893C12.158 11.9706 12 12.3522 12 12.75C12 13.1478 12.158 13.5294 12.4393 13.8107C12.7206 14.092 13.1022 14.25 13.5 14.25V14.25Z" stroke="#008ECC" stroke-miterlimit="1.5" stroke-linecap="round" stroke-linejoin="round"/>
<path d="M7.5375 12.75H11.25V4.95C11.25 4.83065 11.2026 4.71619 11.1182 4.6318C11.0338 4.54741 10.9193 4.5 10.8 4.5H0.75M4.2375 12.75H2.7C2.64091 12.75 2.58239 12.7384 2.52779 12.7157C2.4732 12.6931 2.42359 12.66 2.3818 12.6182C2.34002 12.5764 2.30687 12.5268 2.28425 12.4722C2.26164 12.4176 2.25 12.3591 2.25 12.3V8.625" stroke="#008ECC" stroke-linecap="round"/>
<path d="M1.5 6.75H4.5" stroke="#008ECC" stroke-linecap="round" stroke-linejoin="round"/>
<path d="M11 7H15.2075C15.2945 7.00002 15.3796 7.02525 15.4525 7.07264C15.5255 7.12002 15.5831 7.18753 15.6185 7.267L16.961 10.288C16.9866 10.3454 16.9999 10.4074 17 10.4702V12.55C17 12.6091 16.9884 12.6676 16.9657 12.7222C16.9431 12.7768 16.91 12.8264 16.8682 12.8682C16.8264 12.91 16.7768 12.9431 16.7222 12.9657C16.6676 12.9884 16.6091 13 16.55 13H15.125M11 13H11.75" stroke="#008ECC" stroke-linecap="round"/>
</svg>
